<svg width="1093" height="1107" viewBox="0 0 1093 1107" fill="none" xmlns="http://www.w3.org/2000/svg">
<rect x="828.596" y="51.9999" width="317" height="1111" rx="80" transform="rotate(45 828.596 51.9999)" fill="#FFFEF4"/>
<path fill-rule="evenodd" clip-rule="evenodd" d="M146.266 246.863C191.553 246.863 228.266 210.15 228.266 164.863C228.266 144.039 220.504 125.029 207.715 110.566L209.85 108.431C241.092 77.1895 291.745 77.1895 322.987 108.431L995.446 780.89C1026.69 812.132 1026.69 862.785 995.446 894.027L884.43 1005.04C853.188 1036.28 802.535 1036.28 771.293 1005.04L98.8344 332.584C69.9071 303.657 67.764 258.088 92.405 226.695C106.812 239.256 125.651 246.863 146.266 246.863Z" fill="#FFFEF4"/>
<path d="M827.262 308.463C803.587 308.411 784.408 289.232 784.356 265.557L784.136 164.581C784.052 126.227 830.421 106.961 857.541 134.081L958.738 235.278C985.859 262.399 966.593 308.767 928.239 308.683L827.262 308.463Z" fill="black"/>
<path d="M784.356 840.262C784.408 816.587 803.587 797.408 827.262 797.356L928.239 797.136C966.593 797.052 985.858 843.421 958.738 870.541L857.541 971.738C830.421 998.859 784.052 979.593 784.136 941.239L784.356 840.262Z" fill="black"/>
<path d="M265.8 797.57C289.472 797.91 308.417 817.321 308.181 840.995L307.172 941.967C306.789 980.319 260.19 999.019 233.401 971.571L133.443 869.15C106.655 841.702 126.483 795.571 164.834 796.121L265.8 797.57Z" fill="black"/>
</svg>
